<svg width="134" height="135" viewBox="0 0 134 135" fill="none" xmlns="http://www.w3.org/2000/svg" style="">
<path fill="#590D56" d="M0,67.0076A67,67 0,1,1 134,67.0076A67,67 0,1,1 0,67.0076" class="tUNocfDh_0"></path>
<path d="M90.5 67.0076C90.5 79.9863 79.9787 90.5076 67 90.5076C54.0213 90.5076 43.5 79.9863 43.5 67.0076C43.5 54.0289 54.0213 43.5076 67 43.5076C79.9787 43.5076 90.5 54.0289 90.5 67.0076Z" stroke="white" class="OoGrNVWT_1"></path>
<path d="M71.5 67.0076C71.5 69.4928 69.4853 71.5076 67 71.5076C64.5147 71.5076 62.5 69.4928 62.5 67.0076C62.5 64.5223 64.5147 62.5076 67 62.5076C69.4853 62.5076 71.5 64.5223 71.5 67.0076Z" stroke="white" class="OoGrNVWT_2"></path>
<style data-made-with="vivus-instant">.OoGrNVWT_0{stroke-dasharray:422 424;stroke-dashoffset:423;animation:OoGrNVWT_draw_0 5600ms linear 0ms infinite,OoGrNVWT_fade 5600ms linear 0ms infinite;}.OoGrNVWT_1{stroke-dasharray:148 150;stroke-dashoffset:149;animation:OoGrNVWT_draw_1 5600ms linear 0ms infinite,OoGrNVWT_fade 5600ms linear 0ms infinite;}.OoGrNVWT_2{stroke-dasharray:29 31;stroke-dashoffset:30;animation:OoGrNVWT_draw_2 5600ms linear 0ms infinite,OoGrNVWT_fade 5600ms linear 0ms infinite;}@keyframes OoGrNVWT_draw{100%{stroke-dashoffset:0;}}@keyframes OoGrNVWT_fade{0%{stroke-opacity:1;}92.85714285714286%{stroke-opacity:1;}100%{stroke-opacity:0;}}@keyframes OoGrNVWT_draw_0{7.142857142857142%{stroke-dashoffset: 423}42.857142857142854%{ stroke-dashoffset: 0;}100%{ stroke-dashoffset: 0;}}@keyframes OoGrNVWT_draw_1{16.071428571428573%{stroke-dashoffset: 149}51.78571428571429%{ stroke-dashoffset: 0;}100%{ stroke-dashoffset: 0;}}@keyframes OoGrNVWT_draw_2{25%{stroke-dashoffset: 30}60.71428571428571%{ stroke-dashoffset: 0;}100%{ stroke-dashoffset: 0;}}</style></svg>
