<svg width="42" height="49" viewBox="0 0 42 49" fill="none" xmlns="http://www.w3.org/2000/svg">
<path d="M40.408 20.7226C40.408 23.1725 39.2814 26.0841 37.3893 29.1885C35.517 32.2604 32.9975 35.3569 30.4421 38.1382C27.8921 40.9137 25.3372 43.3423 23.4172 45.0785C22.5045 45.904 21.7374 46.571 21.1854 47.0423C20.6335 46.571 19.8664 45.904 18.9537 45.0785C17.0337 43.3423 14.4788 40.9137 11.9288 38.1382C9.37338 35.3569 6.85394 32.2604 4.98164 29.1885C3.08952 26.0841 1.96289 23.1725 1.96289 20.7226C1.96289 10.1062 10.5691 1.5 21.1854 1.5C31.8018 1.5 40.408 10.1062 40.408 20.7226Z" stroke="#47093E" stroke-width="3"/>
<path d="M15.7656 28.6349L21.5621 13.564L27.3587 28.6349" stroke="#47093E" stroke-width="3" stroke-linejoin="bevel"/>
<path d="M17.4746 23.6926H25.6501" stroke="#47093E" stroke-width="3" stroke-linejoin="bevel"/>
</svg>
