<svg width="91" height="41" viewBox="0 0 91 41" fill="none" xmlns="http://www.w3.org/2000/svg">
<g clip-path="url(#clip0)">
<path d="M5.71976 11.6536V16.9975H0.554688V0H6.57552C12.1532 0 14.6058 2.67199 14.6058 5.82678C14.6058 8.98156 12.1532 11.6536 6.57552 11.6536H5.71976ZM9.28794 5.82678C9.30113 5.43677 9.23969 5.04804 9.10753 4.68529C8.97538 4.32255 8.77539 3.99373 8.52029 3.71973C8.26519 3.44573 7.96055 3.23254 7.62575 3.09372C7.29094 2.95491 6.93328 2.89349 6.57552 2.91339H5.71976V8.74016H6.57552C6.93107 8.75657 7.28589 8.69251 7.61758 8.55201C7.94927 8.41152 8.25062 8.19764 8.50262 7.92389C8.75462 7.65013 8.9518 7.32244 9.0817 6.96149C9.21161 6.60054 9.27143 6.21418 9.25738 5.82678H9.28794Z" fill="#828282"/>
<path d="M15.502 0.083252H20.1857V5.344H20.4072C21.1972 4.64798 22.1801 4.26366 23.1961 4.25356C25.9773 4.25356 27.8798 6.3179 27.8798 8.98989V17.0059H23.1961V8.98989C23.216 8.76719 23.1944 8.5424 23.1328 8.32896C23.0711 8.11553 22.9706 7.91782 22.8372 7.74766C22.7039 7.57749 22.5404 7.43837 22.3565 7.33859C22.1727 7.23882 21.9723 7.18044 21.7673 7.16694C21.1785 7.2195 20.631 7.5177 20.2392 7.99934V16.9892H15.502V0.083252Z" fill="#828282"/>
<path d="M30.8287 6.80067C31.4062 5.98741 32.151 5.33324 33.003 4.89083C33.8549 4.44842 34.7904 4.23013 35.734 4.25353C39.4168 4.25353 41.6325 6.65916 41.6325 9.72238V13.36C41.6423 14.5905 41.7911 15.815 42.0757 17.0058H37.3003L37.1857 16.0319H36.9641C36.1927 16.8723 35.1515 17.3529 34.0607 17.3721C31.2718 17.3721 29.377 15.3078 29.377 13.002C29.377 10.9377 31.2718 8.84004 34.0607 8.84004C35.0816 8.80981 36.0891 9.09866 36.9641 9.67243C36.9641 8.00764 36.0702 6.99212 34.733 6.99212C33.7725 7.05474 32.8632 7.48519 32.1658 8.20742L30.8287 6.80067ZM36.9412 12.0281C36.4786 11.7262 35.9521 11.5599 35.4131 11.5453C35.2375 11.5453 35.0636 11.583 34.9014 11.6562C34.7391 11.7294 34.5917 11.8367 34.4676 11.972C34.3434 12.1072 34.2449 12.2678 34.1777 12.4446C34.1105 12.6213 34.076 12.8107 34.076 13.002C34.076 13.1933 34.1105 13.3827 34.1777 13.5595C34.2449 13.7362 34.3434 13.8968 34.4676 14.0321C34.5917 14.1673 34.7391 14.2746 34.9014 14.3478C35.0636 14.421 35.2375 14.4587 35.4131 14.4587C36.0002 14.3996 36.5455 14.1025 36.9412 13.6263V12.0281Z" fill="#828282"/>
<path d="M5.61453 38.6648C4.58989 38.7035 3.57279 38.4607 2.65685 37.9588C1.74091 37.457 0.955546 36.7122 0.373047 35.7931L1.71016 34.2948C2.06632 34.7635 2.50872 35.1457 3.00882 35.4166C3.50891 35.6876 4.0556 35.8414 4.6136 35.868C5.95072 35.868 6.48556 35.2603 6.48556 34.6527C6.48556 33.4374 1.04542 33.6871 1.04542 29.4336C1.04542 27.6106 2.9403 25.5463 6.28691 25.5463C7.19154 25.4952 8.09359 25.6908 8.91139 26.1152C9.7292 26.5396 10.437 27.1794 10.9706 27.9769L9.62587 29.4336C9.32413 29.0859 8.96215 28.8069 8.56084 28.6126C8.15954 28.4183 7.72687 28.3126 7.28783 28.3015C6.39387 28.3015 5.83611 28.9175 5.83611 29.4003C5.83611 30.6156 11.2992 30.3742 11.2992 34.6194C11.2992 36.6255 9.40429 38.6648 5.61453 38.6648Z" fill="#828282"/>
<path d="M18.1066 33.4374C18.1066 35.0189 18.8706 35.868 19.8945 35.868C20.4399 35.8136 20.952 35.5581 21.3462 35.1438L22.4617 36.8086C21.9787 37.3883 21.3886 37.8504 20.7303 38.1646C20.0719 38.4787 19.3601 38.6378 18.6414 38.6315C15.4094 38.6315 13.4076 36.4423 13.4076 33.4041V28.8259H11.6426L16.418 22.7494H18.1066V25.9125H21.0024L20.5516 28.8259H18.1066V33.4374Z" fill="#828282"/>
<path d="M35.4203 34.6528C35.4307 35.8805 35.5795 37.1022 35.8635 38.2903H31.0728L30.9352 37.3248H30.7137C29.9098 38.1834 28.829 38.6646 27.7033 38.6649C24.9144 38.6649 23.0195 36.6006 23.0195 33.9286V25.9126H27.7262V33.9286C27.7007 34.1565 27.7188 34.3877 27.7793 34.6077C27.8398 34.8277 27.9414 35.0316 28.0777 35.2068C28.2141 35.3819 28.3822 35.5244 28.5715 35.6253C28.7609 35.7262 28.9673 35.7833 29.1779 35.7931C29.765 35.734 30.3104 35.437 30.706 34.9607V25.9126H35.3897L35.4203 34.6528Z" fill="#828282"/>
<path d="M50.3584 34.6527C50.3687 35.8804 50.5176 37.1021 50.8015 38.2903H46.0108L45.8962 37.3164H45.6747C44.8708 38.175 43.79 38.6562 42.6642 38.6565C41.8843 38.6548 41.1126 38.4822 40.3951 38.1489C39.6777 37.8156 39.0291 37.3285 38.488 36.7165C37.9469 36.1045 37.5244 35.3801 37.2456 34.5866C36.9667 33.793 36.8373 32.9464 36.865 32.0972C36.8373 31.2481 36.9667 30.4015 37.2456 29.6079C37.5244 28.8144 37.9469 28.09 38.488 27.478C39.0291 26.866 39.6777 26.3789 40.3951 26.0456C41.1126 25.7123 41.8843 25.5397 42.6642 25.538C43.6471 25.5251 44.6135 25.8135 45.4531 26.3704H45.6747V21.376H50.3584V34.6527ZM45.6747 34.9024V28.9508C45.2141 28.6428 44.6868 28.4733 44.1465 28.4597C42.8094 28.4597 41.6939 29.675 41.6939 32.1056C41.6939 34.5362 42.7789 35.7931 44.093 35.7931C44.7074 35.7351 45.2759 35.4149 45.6747 34.9024Z" fill="#828282"/>
<path d="M55.3865 24.4557C54.9504 24.4329 54.5301 24.2712 54.1775 23.9906C53.8249 23.7101 53.5557 23.323 53.4031 22.8773C53.2505 22.4317 53.2213 21.947 53.3191 21.4835C53.4169 21.0199 53.6374 20.5978 53.9532 20.2694C54.2691 19.9411 54.6665 19.7209 55.0961 19.6362C55.5257 19.5514 55.9687 19.6059 56.3702 19.7928C56.7717 19.9797 57.114 20.2908 57.3547 20.6876C57.5955 21.0844 57.7241 21.5494 57.7246 22.0251C57.7085 22.6845 57.4537 23.3102 57.0156 23.7656C56.5776 24.221 55.9919 24.4691 55.3865 24.4557ZM57.7169 38.2901H53.0332V26.1538H57.7169V38.2901Z" fill="#828282"/>
<path d="M66.7479 25.5464C70.7593 25.5464 73.5481 28.5846 73.5481 32.1057C73.5481 35.6267 70.7593 38.665 66.7479 38.665C62.7366 38.665 59.9707 35.6267 59.9707 32.1057C59.9707 28.5846 62.7366 25.5464 66.7479 25.5464ZM66.7479 35.993C67.7489 35.993 68.7574 34.9025 68.7574 32.1057C68.7574 29.3088 67.7489 28.2184 66.7479 28.2184C65.747 28.2184 64.7385 29.3088 64.7385 32.1057C64.7385 34.9025 65.747 35.993 66.7479 35.993Z" fill="#828282"/>
<path d="M52.024 4.28684C51.8559 4.28684 51.6878 4.28684 51.5121 4.28684C50.3945 4.27909 49.3178 4.74469 48.5093 5.58538H48.2801L48.1655 4.6198H43.3672L43.818 8.25737V17.0059H48.5093V8.25737C49.0782 7.75469 49.7795 7.46305 50.5112 7.42497C51.346 7.32252 52.1872 7.54354 52.8874 8.04927L52.024 4.28684Z" fill="#828282"/>
<path d="M61.3233 8.99001C61.3233 7.77471 60.7656 7.16706 59.9862 7.16706C59.7035 7.18357 59.4273 7.26651 59.1767 7.41018C58.9262 7.55386 58.7071 7.75488 58.5345 7.99946V16.9893H53.8584V6.25142L53.4688 4.16211H56.8536L58.29 5.58551H58.5345C58.9055 5.1562 59.3548 4.816 59.8534 4.58667C60.352 4.35733 60.8891 4.24392 61.4303 4.25367C62.154 4.20678 62.8777 4.34755 63.5418 4.66444C64.2059 4.98134 64.7915 5.46531 65.2506 6.07662H65.4722C65.902 5.53061 66.4305 5.08695 67.0247 4.77331C67.6189 4.45967 68.2661 4.28278 68.9258 4.25367C69.5163 4.21857 70.1072 4.3151 70.6623 4.53735C71.2174 4.75961 71.7251 5.10292 72.1542 5.54627C72.5834 5.98963 72.925 6.52371 73.1581 7.11584C73.3912 7.70797 73.511 8.3457 73.5102 8.99001V17.006H68.7959V8.99001C68.7959 7.77471 68.2381 7.16706 67.4588 7.16706C67.176 7.18357 66.8999 7.26651 66.6493 7.41018C66.3987 7.55386 66.1796 7.75488 66.007 7.99946V16.9893H61.3233V8.99001Z" fill="#828282"/>
<path opacity="0.5" d="M85.9018 14.6418V14.1507C85.9018 13.5944 86.1047 13.0608 86.4658 12.6674C86.8268 12.2741 87.3166 12.0531 87.8272 12.0531H88.2398C88.4927 12.0575 88.7439 12.0076 88.979 11.9062C89.2142 11.8048 89.4287 11.654 89.6104 11.4623C89.792 11.2706 89.9372 11.0418 90.0376 10.789C90.1381 10.5361 90.1919 10.2642 90.1958 9.98872C90.1989 9.70834 90.1504 9.43012 90.0531 9.17052C89.9558 8.91093 89.8117 8.67522 89.6294 8.47733C89.447 8.27944 89.2301 8.12339 88.9914 8.01841C88.7528 7.91343 88.4972 7.86164 88.2398 7.86611H83.9458C83.4365 7.87488 82.9511 8.10318 82.5959 8.50102C82.2408 8.89885 82.0448 9.4338 82.0509 9.98872V14.6668C82.0509 15.2231 82.2538 15.7567 82.6149 16.15C82.976 16.5434 83.4657 16.7644 83.9764 16.7644C84.2312 16.7644 84.4834 16.7094 84.7185 16.6024C84.9536 16.4954 85.1669 16.3387 85.346 16.1412C85.5251 15.9438 85.6665 15.7096 85.7619 15.4522C85.8573 15.1948 85.9048 14.9194 85.9018 14.6418Z" fill="#828282"/>
<path d="M82.0365 5.28563V5.76009C82.0365 6.31642 81.8336 6.84996 81.4725 7.24335C81.1114 7.63673 80.6217 7.85773 80.111 7.85773H79.6755C79.4194 7.85659 79.1657 7.91111 78.9292 8.01811C78.6927 8.12511 78.4781 8.28243 78.2981 8.48087C78.1181 8.6793 77.9763 8.91487 77.8808 9.17377C77.7854 9.43267 77.7384 9.70971 77.7424 9.98867C77.7424 10.2648 77.7925 10.5383 77.8897 10.7933C77.987 11.0484 78.1295 11.28 78.3091 11.4749C78.4887 11.6698 78.7018 11.8241 78.9363 11.929C79.1708 12.034 79.422 12.0874 79.6755 12.0863H83.9619C84.4726 12.0863 84.9623 11.8653 85.3234 11.4719C85.6845 11.0785 85.8874 10.545 85.8874 9.98867V5.28563C85.8874 4.7293 85.6845 4.19576 85.3234 3.80237C84.9623 3.40899 84.4726 3.18799 83.9619 3.18799C83.4513 3.18799 82.9615 3.40899 82.6004 3.80237C82.2393 4.19576 82.0365 4.7293 82.0365 5.28563Z" fill="#828282"/>
</g>
<defs>
<clipPath id="clip0">
<rect width="89.8234" height="41" fill="white" transform="translate(0.373047)"/>
</clipPath>
</defs>
</svg>
